<?xml version="1.0" encoding="utf-8" standalone="no"?>
<!DOCTYPE svg PUBLIC "-//W3C//DTD SVG 1.1//EN"
  "http://www.w3.org/Graphics/SVG/1.1/DTD/svg11.dtd">
<!-- Created with matplotlib (https://matplotlib.org/) -->
<svg height="360pt" version="1.1" viewBox="0 0 720 360" width="720pt" xmlns="http://www.w3.org/2000/svg" xmlns:xlink="http://www.w3.org/1999/xlink">
 <metadata>
  <rdf:RDF xmlns:cc="http://creativecommons.org/ns#" xmlns:dc="http://purl.org/dc/elements/1.1/" xmlns:rdf="http://www.w3.org/1999/02/22-rdf-syntax-ns#">
   <cc:Work>
    <dc:type rdf:resource="http://purl.org/dc/dcmitype/StillImage"/>
    <dc:date>2020-12-17T21:46:12.074503</dc:date>
    <dc:format>image/svg+xml</dc:format>
    <dc:creator>
     <cc:Agent>
      <dc:title>Matplotlib v3.3.2, https://matplotlib.org/</dc:title>
     </cc:Agent>
    </dc:creator>
   </cc:Work>
  </rdf:RDF>
 </metadata>
 <defs>
  <style type="text/css">*{stroke-linecap:butt;stroke-linejoin:round;}</style>
 </defs>
 <g id="figure_1">
  <g id="patch_1">
   <path d="M 0 360 
L 720 360 
L 720 0 
L 0 0 
z
" style="fill:none;"/>
  </g>
  <g id="axes_1">
   <g id="text_1">
    <!--  -->
    <g style="fill:#66c2a5;" transform="translate(10.8 265.09916)scale(0.3 -0.3)">
     <defs>
      <path d="M 23.4375 73.4375 
C 23.4375 65.625 29.6875 59.375 37.5 59.375 
C 45.125 59.375 51.5625 65.625 51.5625 73.4375 
C 51.5625 81.0625 45.125 87.5 37.5 87.5 
C 29.6875 87.5 23.4375 81.0625 23.4375 73.4375 
z
M 73.046875 73.046875 
C 70.703125 75.59375 66.609375 75.59375 64.265625 73.046875 
L 47.265625 56.25 
L 27.546875 56.25 
L 10.546875 73.046875 
C 8.203125 75.59375 4.109375 75.59375 1.765625 73.046875 
C -0.78125 70.703125 -0.78125 66.609375 1.765625 64.265625 
L 20.3125 45.703125 
L 20.3125 -6.25 
C 20.3125 -9.765625 23.046875 -12.5 26.5625 -12.5 
L 29.6875 -12.5 
C 33.015625 -12.5 35.9375 -9.765625 35.9375 -6.25 
L 35.9375 15.625 
L 39.0625 15.625 
L 39.0625 -6.25 
C 39.0625 -9.765625 41.796875 -12.5 45.3125 -12.5 
L 48.4375 -12.5 
C 51.765625 -12.5 54.6875 -9.765625 54.6875 -6.25 
L 54.6875 45.703125 
L 73.046875 64.265625 
C 75.59375 66.609375 75.59375 70.703125 73.046875 73.046875 
z
" id="FontAwesome5Free-Solid-61870"/>
     </defs>
     <use xlink:href="#FontAwesome5Free-Solid-61870"/>
    </g>
   </g>
   <g id="text_2">
    <!--  -->
    <g style="fill:#66c2a5;" transform="translate(10.8 229.885714)scale(0.3 -0.3)">
     <use xlink:href="#FontAwesome5Free-Solid-61870"/>
    </g>
   </g>
   <g id="text_3">
    <!--  -->
    <g style="fill:#66c2a5;" transform="translate(10.8 194.672269)scale(0.3 -0.3)">
     <use xlink:href="#FontAwesome5Free-Solid-61870"/>
    </g>
   </g>
   <g id="text_4">
    <!--  -->
    <g style="fill:#66c2a5;" transform="translate(10.8 159.458824)scale(0.3 -0.3)">
     <use xlink:href="#FontAwesome5Free-Solid-61870"/>
    </g>
   </g>
   <g id="text_5">
    <!--  -->
    <g style="fill:#66c2a5;" transform="translate(10.8 124.245378)scale(0.3 -0.3)">
     <use xlink:href="#FontAwesome5Free-Solid-61870"/>
    </g>
   </g>
   <g id="text_6">
    <!--  -->
    <g style="fill:#66c2a5;" transform="translate(46.013445 265.09916)scale(0.3 -0.3)">
     <use xlink:href="#FontAwesome5Free-Solid-61870"/>
    </g>
   </g>
   <g id="text_7">
    <!--  -->
    <g style="fill:#66c2a5;" transform="translate(46.013445 229.885714)scale(0.3 -0.3)">
     <use xlink:href="#FontAwesome5Free-Solid-61870"/>
    </g>
   </g>
   <g id="text_8">
    <!--  -->
    <g style="fill:#66c2a5;" transform="translate(46.013445 194.672269)scale(0.3 -0.3)">
     <use xlink:href="#FontAwesome5Free-Solid-61870"/>
    </g>
   </g>
   <g id="text_9">
    <!--  -->
    <g style="fill:#66c2a5;" transform="translate(46.013445 159.458824)scale(0.3 -0.3)">
     <use xlink:href="#FontAwesome5Free-Solid-61870"/>
    </g>
   </g>
   <g id="text_10">
    <!--  -->
    <g style="fill:#66c2a5;" transform="translate(46.013445 124.245378)scale(0.3 -0.3)">
     <use xlink:href="#FontAwesome5Free-Solid-61870"/>
    </g>
   </g>
   <g id="text_11">
    <!--  -->
    <g style="fill:#66c2a5;" transform="translate(81.226891 265.09916)scale(0.3 -0.3)">
     <use xlink:href="#FontAwesome5Free-Solid-61870"/>
    </g>
   </g>
   <g id="text_12">
    <!--  -->
    <g style="fill:#66c2a5;" transform="translate(81.226891 229.885714)scale(0.3 -0.3)">
     <use xlink:href="#FontAwesome5Free-Solid-61870"/>
    </g>
   </g>
   <g id="text_13">
    <!--  -->
    <g style="fill:#66c2a5;" transform="translate(81.226891 194.672269)scale(0.3 -0.3)">
     <use xlink:href="#FontAwesome5Free-Solid-61870"/>
    </g>
   </g>
   <g id="text_14">
    <!--  -->
    <g style="fill:#66c2a5;" transform="translate(81.226891 159.458824)scale(0.3 -0.3)">
     <use xlink:href="#FontAwesome5Free-Solid-61870"/>
    </g>
   </g>
   <g id="text_15">
    <!--  -->
    <g style="fill:#66c2a5;" transform="translate(81.226891 124.245378)scale(0.3 -0.3)">
     <use xlink:href="#FontAwesome5Free-Solid-61870"/>
    </g>
   </g>
   <g id="text_16">
    <!--  -->
    <g style="fill:#66c2a5;" transform="translate(116.440336 265.09916)scale(0.3 -0.3)">
     <use xlink:href="#FontAwesome5Free-Solid-61870"/>
    </g>
   </g>
   <g id="text_17">
    <!--  -->
    <g style="fill:#66c2a5;" transform="translate(116.440336 229.885714)scale(0.3 -0.3)">
     <use xlink:href="#FontAwesome5Free-Solid-61870"/>
    </g>
   </g>
   <g id="text_18">
    <!--  -->
    <g style="fill:#66c2a5;" transform="translate(116.440336 194.672269)scale(0.3 -0.3)">
     <use xlink:href="#FontAwesome5Free-Solid-61870"/>
    </g>
   </g>
   <g id="text_19">
    <!--  -->
    <g style="fill:#66c2a5;" transform="translate(116.440336 159.458824)scale(0.3 -0.3)">
     <use xlink:href="#FontAwesome5Free-Solid-61870"/>
    </g>
   </g>
   <g id="text_20">
    <!--  -->
    <g style="fill:#66c2a5;" transform="translate(116.440336 124.245378)scale(0.3 -0.3)">
     <use xlink:href="#FontAwesome5Free-Solid-61870"/>
    </g>
   </g>
   <g id="text_21">
    <!--  -->
    <g style="fill:#66c2a5;" transform="translate(151.653782 265.09916)scale(0.3 -0.3)">
     <use xlink:href="#FontAwesome5Free-Solid-61870"/>
    </g>
   </g>
   <g id="text_22">
    <!--  -->
    <g style="fill:#66c2a5;" transform="translate(151.653782 229.885714)scale(0.3 -0.3)">
     <use xlink:href="#FontAwesome5Free-Solid-61870"/>
    </g>
   </g>
   <g id="text_23">
    <!--  -->
    <g style="fill:#66c2a5;" transform="translate(151.653782 194.672269)scale(0.3 -0.3)">
     <use xlink:href="#FontAwesome5Free-Solid-61870"/>
    </g>
   </g>
   <g id="text_24">
    <!--  -->
    <g style="fill:#66c2a5;" transform="translate(151.653782 159.458824)scale(0.3 -0.3)">
     <use xlink:href="#FontAwesome5Free-Solid-61870"/>
    </g>
   </g>
   <g id="text_25">
    <!--  -->
    <g style="fill:#66c2a5;" transform="translate(151.653782 124.245378)scale(0.3 -0.3)">
     <use xlink:href="#FontAwesome5Free-Solid-61870"/>
    </g>
   </g>
   <g id="text_26">
    <!--  -->
    <g style="fill:#66c2a5;" transform="translate(186.867227 265.09916)scale(0.3 -0.3)">
     <use xlink:href="#FontAwesome5Free-Solid-61870"/>
    </g>
   </g>
   <g id="text_27">
    <!--  -->
    <g style="fill:#66c2a5;" transform="translate(186.867227 229.885714)scale(0.3 -0.3)">
     <use xlink:href="#FontAwesome5Free-Solid-61870"/>
    </g>
   </g>
   <g id="text_28">
    <!--  -->
    <g style="fill:#66c2a5;" transform="translate(186.867227 194.672269)scale(0.3 -0.3)">
     <use xlink:href="#FontAwesome5Free-Solid-61870"/>
    </g>
   </g>
   <g id="text_29">
    <!--  -->
    <g style="fill:#66c2a5;" transform="translate(186.867227 159.458824)scale(0.3 -0.3)">
     <use xlink:href="#FontAwesome5Free-Solid-61870"/>
    </g>
   </g>
   <g id="text_30">
    <!--  -->
    <g style="fill:#66c2a5;" transform="translate(186.867227 124.245378)scale(0.3 -0.3)">
     <use xlink:href="#FontAwesome5Free-Solid-61870"/>
    </g>
   </g>
   <g id="text_31">
    <!--  -->
    <g style="fill:#66c2a5;" transform="translate(222.080672 265.09916)scale(0.3 -0.3)">
     <use xlink:href="#FontAwesome5Free-Solid-61870"/>
    </g>
   </g>
   <g id="text_32">
    <!--  -->
    <g style="fill:#66c2a5;" transform="translate(222.080672 229.885714)scale(0.3 -0.3)">
     <use xlink:href="#FontAwesome5Free-Solid-61870"/>
    </g>
   </g>
   <g id="text_33">
    <!--  -->
    <g style="fill:#66c2a5;" transform="translate(222.080672 194.672269)scale(0.3 -0.3)">
     <use xlink:href="#FontAwesome5Free-Solid-61870"/>
    </g>
   </g>
   <g id="text_34">
    <!--  -->
    <g style="fill:#66c2a5;" transform="translate(222.080672 159.458824)scale(0.3 -0.3)">
     <use xlink:href="#FontAwesome5Free-Solid-61870"/>
    </g>
   </g>
   <g id="text_35">
    <!--  -->
    <g style="fill:#66c2a5;" transform="translate(222.080672 124.245378)scale(0.3 -0.3)">
     <use xlink:href="#FontAwesome5Free-Solid-61870"/>
    </g>
   </g>
   <g id="text_36">
    <!--  -->
    <g style="fill:#66c2a5;" transform="translate(257.294118 265.09916)scale(0.3 -0.3)">
     <use xlink:href="#FontAwesome5Free-Solid-61870"/>
    </g>
   </g>
   <g id="text_37">
    <!--  -->
    <g style="fill:#66c2a5;" transform="translate(257.294118 229.885714)scale(0.3 -0.3)">
     <use xlink:href="#FontAwesome5Free-Solid-61870"/>
    </g>
   </g>
   <g id="text_38">
    <!--  -->
    <g style="fill:#66c2a5;" transform="translate(257.294118 194.672269)scale(0.3 -0.3)">
     <use xlink:href="#FontAwesome5Free-Solid-61870"/>
    </g>
   </g>
   <g id="text_39">
    <!--  -->
    <g style="fill:#66c2a5;" transform="translate(257.294118 159.458824)scale(0.3 -0.3)">
     <use xlink:href="#FontAwesome5Free-Solid-61870"/>
    </g>
   </g>
   <g id="text_40">
    <!--  -->
    <g style="fill:#66c2a5;" transform="translate(257.294118 124.245378)scale(0.3 -0.3)">
     <use xlink:href="#FontAwesome5Free-Solid-61870"/>
    </g>
   </g>
   <g id="text_41">
    <!--  -->
    <g style="fill:#66c2a5;" transform="translate(292.507563 265.09916)scale(0.3 -0.3)">
     <use xlink:href="#FontAwesome5Free-Solid-61870"/>
    </g>
   </g>
   <g id="text_42">
    <!--  -->
    <g style="fill:#66c2a5;" transform="translate(292.507563 229.885714)scale(0.3 -0.3)">
     <use xlink:href="#FontAwesome5Free-Solid-61870"/>
    </g>
   </g>
   <g id="text_43">
    <!--  -->
    <g style="fill:#fc8d62;" transform="translate(292.507563 194.672269)scale(0.3 -0.3)">
     <use xlink:href="#FontAwesome5Free-Solid-61870"/>
    </g>
   </g>
   <g id="text_44">
    <!--  -->
    <g style="fill:#fc8d62;" transform="translate(292.507563 159.458824)scale(0.3 -0.3)">
     <use xlink:href="#FontAwesome5Free-Solid-61870"/>
    </g>
   </g>
   <g id="text_45">
    <!--  -->
    <g style="fill:#fc8d62;" transform="translate(292.507563 124.245378)scale(0.3 -0.3)">
     <use xlink:href="#FontAwesome5Free-Solid-61870"/>
    </g>
   </g>
   <g id="text_46">
    <!--  -->
    <g style="fill:#fc8d62;" transform="translate(327.721008 265.09916)scale(0.3 -0.3)">
     <use xlink:href="#FontAwesome5Free-Solid-61870"/>
    </g>
   </g>
   <g id="text_47">
    <!--  -->
    <g style="fill:#fc8d62;" transform="translate(327.721008 229.885714)scale(0.3 -0.3)">
     <use xlink:href="#FontAwesome5Free-Solid-61870"/>
    </g>
   </g>
   <g id="text_48">
    <!--  -->
    <g style="fill:#fc8d62;" transform="translate(327.721008 194.672269)scale(0.3 -0.3)">
     <use xlink:href="#FontAwesome5Free-Solid-61870"/>
    </g>
   </g>
   <g id="text_49">
    <!--  -->
    <g style="fill:#fc8d62;" transform="translate(327.721008 159.458824)scale(0.3 -0.3)">
     <use xlink:href="#FontAwesome5Free-Solid-61870"/>
    </g>
   </g>
   <g id="text_50">
    <!--  -->
    <g style="fill:#fc8d62;" transform="translate(327.721008 124.245378)scale(0.3 -0.3)">
     <use xlink:href="#FontAwesome5Free-Solid-61870"/>
    </g>
   </g>
   <g id="text_51">
    <!--  -->
    <g style="fill:#fc8d62;" transform="translate(362.934454 265.09916)scale(0.3 -0.3)">
     <use xlink:href="#FontAwesome5Free-Solid-61870"/>
    </g>
   </g>
   <g id="text_52">
    <!--  -->
    <g style="fill:#fc8d62;" transform="translate(362.934454 229.885714)scale(0.3 -0.3)">
     <use xlink:href="#FontAwesome5Free-Solid-61870"/>
    </g>
   </g>
   <g id="text_53">
    <!--  -->
    <g style="fill:#fc8d62;" transform="translate(362.934454 194.672269)scale(0.3 -0.3)">
     <use xlink:href="#FontAwesome5Free-Solid-61870"/>
    </g>
   </g>
   <g id="text_54">
    <!--  -->
    <g style="fill:#fc8d62;" transform="translate(362.934454 159.458824)scale(0.3 -0.3)">
     <use xlink:href="#FontAwesome5Free-Solid-61870"/>
    </g>
   </g>
   <g id="text_55">
    <!--  -->
    <g style="fill:#fc8d62;" transform="translate(362.934454 124.245378)scale(0.3 -0.3)">
     <use xlink:href="#FontAwesome5Free-Solid-61870"/>
    </g>
   </g>
   <g id="text_56">
    <!--  -->
    <g style="fill:#fc8d62;" transform="translate(398.147899 265.09916)scale(0.3 -0.3)">
     <use xlink:href="#FontAwesome5Free-Solid-61870"/>
    </g>
   </g>
   <g id="text_57">
    <!--  -->
    <g style="fill:#fc8d62;" transform="translate(398.147899 229.885714)scale(0.3 -0.3)">
     <use xlink:href="#FontAwesome5Free-Solid-61870"/>
    </g>
   </g>
   <g id="text_58">
    <!--  -->
    <g style="fill:#fc8d62;" transform="translate(398.147899 194.672269)scale(0.3 -0.3)">
     <use xlink:href="#FontAwesome5Free-Solid-61870"/>
    </g>
   </g>
   <g id="text_59">
    <!--  -->
    <g style="fill:#fc8d62;" transform="translate(398.147899 159.458824)scale(0.3 -0.3)">
     <use xlink:href="#FontAwesome5Free-Solid-61870"/>
    </g>
   </g>
   <g id="text_60">
    <!--  -->
    <g style="fill:#fc8d62;" transform="translate(398.147899 124.245378)scale(0.3 -0.3)">
     <use xlink:href="#FontAwesome5Free-Solid-61870"/>
    </g>
   </g>
   <g id="text_61">
    <!--  -->
    <g style="fill:#fc8d62;" transform="translate(433.361345 265.09916)scale(0.3 -0.3)">
     <use xlink:href="#FontAwesome5Free-Solid-61870"/>
    </g>
   </g>
   <g id="text_62">
    <!--  -->
    <g style="fill:#fc8d62;" transform="translate(433.361345 229.885714)scale(0.3 -0.3)">
     <use xlink:href="#FontAwesome5Free-Solid-61870"/>
    </g>
   </g>
   <g id="text_63">
    <!--  -->
    <g style="fill:#fc8d62;" transform="translate(433.361345 194.672269)scale(0.3 -0.3)">
     <use xlink:href="#FontAwesome5Free-Solid-61870"/>
    </g>
   </g>
   <g id="text_64">
    <!--  -->
    <g style="fill:#fc8d62;" transform="translate(433.361345 159.458824)scale(0.3 -0.3)">
     <use xlink:href="#FontAwesome5Free-Solid-61870"/>
    </g>
   </g>
   <g id="text_65">
    <!--  -->
    <g style="fill:#fc8d62;" transform="translate(433.361345 124.245378)scale(0.3 -0.3)">
     <use xlink:href="#FontAwesome5Free-Solid-61870"/>
    </g>
   </g>
   <g id="text_66">
    <!--  -->
    <g style="fill:#fc8d62;" transform="translate(468.57479 265.09916)scale(0.3 -0.3)">
     <use xlink:href="#FontAwesome5Free-Solid-61870"/>
    </g>
   </g>
   <g id="text_67">
    <!--  -->
    <g style="fill:#fc8d62;" transform="translate(468.57479 229.885714)scale(0.3 -0.3)">
     <use xlink:href="#FontAwesome5Free-Solid-61870"/>
    </g>
   </g>
   <g id="text_68">
    <!--  -->
    <g style="fill:#fc8d62;" transform="translate(468.57479 194.672269)scale(0.3 -0.3)">
     <use xlink:href="#FontAwesome5Free-Solid-61870"/>
    </g>
   </g>
   <g id="text_69">
    <!--  -->
    <g style="fill:#fc8d62;" transform="translate(468.57479 159.458824)scale(0.3 -0.3)">
     <use xlink:href="#FontAwesome5Free-Solid-61870"/>
    </g>
   </g>
   <g id="text_70">
    <!--  -->
    <g style="fill:#fc8d62;" transform="translate(468.57479 124.245378)scale(0.3 -0.3)">
     <use xlink:href="#FontAwesome5Free-Solid-61870"/>
    </g>
   </g>
   <g id="text_71">
    <!--  -->
    <g style="fill:#fc8d62;" transform="translate(503.788235 265.09916)scale(0.3 -0.3)">
     <use xlink:href="#FontAwesome5Free-Solid-61870"/>
    </g>
   </g>
   <g id="text_72">
    <!--  -->
    <g style="fill:#fc8d62;" transform="translate(503.788235 229.885714)scale(0.3 -0.3)">
     <use xlink:href="#FontAwesome5Free-Solid-61870"/>
    </g>
   </g>
   <g id="text_73">
    <!--  -->
    <g style="fill:#fc8d62;" transform="translate(503.788235 194.672269)scale(0.3 -0.3)">
     <use xlink:href="#FontAwesome5Free-Solid-61870"/>
    </g>
   </g>
   <g id="text_74">
    <!--  -->
    <g style="fill:#fc8d62;" transform="translate(503.788235 159.458824)scale(0.3 -0.3)">
     <use xlink:href="#FontAwesome5Free-Solid-61870"/>
    </g>
   </g>
   <g id="text_75">
    <!--  -->
    <g style="fill:#fc8d62;" transform="translate(503.788235 124.245378)scale(0.3 -0.3)">
     <use xlink:href="#FontAwesome5Free-Solid-61870"/>
    </g>
   </g>
   <g id="text_76">
    <!--  -->
    <g style="fill:#fc8d62;" transform="translate(539.001681 265.09916)scale(0.3 -0.3)">
     <use xlink:href="#FontAwesome5Free-Solid-61870"/>
    </g>
   </g>
   <g id="text_77">
    <!--  -->
    <g style="fill:#fc8d62;" transform="translate(539.001681 229.885714)scale(0.3 -0.3)">
     <use xlink:href="#FontAwesome5Free-Solid-61870"/>
    </g>
   </g>
   <g id="text_78">
    <!--  -->
    <g style="fill:#fc8d62;" transform="translate(539.001681 194.672269)scale(0.3 -0.3)">
     <use xlink:href="#FontAwesome5Free-Solid-61870"/>
    </g>
   </g>
   <g id="text_79">
    <!--  -->
    <g style="fill:#fc8d62;" transform="translate(539.001681 159.458824)scale(0.3 -0.3)">
     <use xlink:href="#FontAwesome5Free-Solid-61870"/>
    </g>
   </g>
   <g id="text_80">
    <!--  -->
    <g style="fill:#8da0cb;" transform="translate(539.001681 124.245378)scale(0.3 -0.3)">
     <use xlink:href="#FontAwesome5Free-Solid-61870"/>
    </g>
   </g>
   <g id="text_81">
    <!--  -->
    <g style="fill:#8da0cb;" transform="translate(574.215126 265.09916)scale(0.3 -0.3)">
     <use xlink:href="#FontAwesome5Free-Solid-61870"/>
    </g>
   </g>
   <g id="text_82">
    <!--  -->
    <g style="fill:#8da0cb;" transform="translate(574.215126 229.885714)scale(0.3 -0.3)">
     <use xlink:href="#FontAwesome5Free-Solid-61870"/>
    </g>
   </g>
   <g id="text_83">
    <!--  -->
    <g style="fill:#8da0cb;" transform="translate(574.215126 194.672269)scale(0.3 -0.3)">
     <use xlink:href="#FontAwesome5Free-Solid-61870"/>
    </g>
   </g>
   <g id="text_84">
    <!--  -->
    <g style="fill:#8da0cb;" transform="translate(574.215126 159.458824)scale(0.3 -0.3)">
     <use xlink:href="#FontAwesome5Free-Solid-61870"/>
    </g>
   </g>
   <g id="text_85">
    <!--  -->
    <g style="fill:#8da0cb;" transform="translate(574.215126 124.245378)scale(0.3 -0.3)">
     <use xlink:href="#FontAwesome5Free-Solid-61870"/>
    </g>
   </g>
   <g id="text_86">
    <!--  -->
    <g style="fill:#8da0cb;" transform="translate(609.428571 265.09916)scale(0.3 -0.3)">
     <use xlink:href="#FontAwesome5Free-Solid-61870"/>
    </g>
   </g>
   <g id="text_87">
    <!--  -->
    <g style="fill:#8da0cb;" transform="translate(609.428571 229.885714)scale(0.3 -0.3)">
     <use xlink:href="#FontAwesome5Free-Solid-61870"/>
    </g>
   </g>
   <g id="text_88">
    <!--  -->
    <g style="fill:#8da0cb;" transform="translate(609.428571 194.672269)scale(0.3 -0.3)">
     <use xlink:href="#FontAwesome5Free-Solid-61870"/>
    </g>
   </g>
   <g id="text_89">
    <!--  -->
    <g style="fill:#8da0cb;" transform="translate(609.428571 159.458824)scale(0.3 -0.3)">
     <use xlink:href="#FontAwesome5Free-Solid-61870"/>
    </g>
   </g>
   <g id="text_90">
    <!--  -->
    <g style="fill:#8da0cb;" transform="translate(609.428571 124.245378)scale(0.3 -0.3)">
     <use xlink:href="#FontAwesome5Free-Solid-61870"/>
    </g>
   </g>
   <g id="text_91">
    <!--  -->
    <g style="fill:#8da0cb;" transform="translate(644.642017 265.09916)scale(0.3 -0.3)">
     <use xlink:href="#FontAwesome5Free-Solid-61870"/>
    </g>
   </g>
   <g id="text_92">
    <!--  -->
    <g style="fill:#8da0cb;" transform="translate(644.642017 229.885714)scale(0.3 -0.3)">
     <use xlink:href="#FontAwesome5Free-Solid-61870"/>
    </g>
   </g>
   <g id="text_93">
    <!--  -->
    <g style="fill:#8da0cb;" transform="translate(644.642017 194.672269)scale(0.3 -0.3)">
     <use xlink:href="#FontAwesome5Free-Solid-61870"/>
    </g>
   </g>
   <g id="text_94">
    <!--  -->
    <g style="fill:#8da0cb;" transform="translate(644.642017 159.458824)scale(0.3 -0.3)">
     <use xlink:href="#FontAwesome5Free-Solid-61870"/>
    </g>
   </g>
   <g id="text_95">
    <!--  -->
    <g style="fill:#8da0cb;" transform="translate(644.642017 124.245378)scale(0.3 -0.3)">
     <use xlink:href="#FontAwesome5Free-Solid-61870"/>
    </g>
   </g>
   <g id="text_96">
    <!--  -->
    <g style="fill:#8da0cb;" transform="translate(679.855462 265.09916)scale(0.3 -0.3)">
     <use xlink:href="#FontAwesome5Free-Solid-61870"/>
    </g>
   </g>
   <g id="text_97">
    <!--  -->
    <g style="fill:#8da0cb;" transform="translate(679.855462 229.885714)scale(0.3 -0.3)">
     <use xlink:href="#FontAwesome5Free-Solid-61870"/>
    </g>
   </g>
   <g id="text_98">
    <!--  -->
    <g style="fill:#8da0cb;" transform="translate(679.855462 194.672269)scale(0.3 -0.3)">
     <use xlink:href="#FontAwesome5Free-Solid-61870"/>
    </g>
   </g>
   <g id="text_99">
    <!--  -->
    <g style="fill:#8da0cb;" transform="translate(679.855462 159.458824)scale(0.3 -0.3)">
     <use xlink:href="#FontAwesome5Free-Solid-61870"/>
    </g>
   </g>
   <g id="legend_1">
    <g id="patch_2">
     <path d="M 17.8 328.178487 
L 274.0625 328.178487 
Q 276.0625 328.178487 276.0625 326.178487 
L 276.0625 312.500362 
Q 276.0625 310.500362 274.0625 310.500362 
L 17.8 310.500362 
Q 15.8 310.500362 15.8 312.500362 
L 15.8 326.178487 
Q 15.8 328.178487 17.8 328.178487 
z
" style="fill:none;opacity:0;"/>
    </g>
    <g id="patch_3">
     <path d="M 19.8 322.0988 
L 39.8 322.0988 
L 39.8 315.0988 
L 19.8 315.0988 
z
" style="fill:#66c2a5;stroke:#66c2a5;stroke-linejoin:miter;"/>
    </g>
    <g id="text_100">
     <!-- Healthy -->
     <g transform="translate(47.8 322.0988)scale(0.1 -0.1)">
      <defs>
       <path d="M 9.8125 72.90625 
L 19.671875 72.90625 
L 19.671875 43.015625 
L 55.515625 43.015625 
L 55.515625 72.90625 
L 65.375 72.90625 
L 65.375 0 
L 55.515625 0 
L 55.515625 34.71875 
L 19.671875 34.71875 
L 19.671875 0 
L 9.8125 0 
z
" id="DejaVuSans-72"/>
       <path d="M 56.203125 29.59375 
L 56.203125 25.203125 
L 14.890625 25.203125 
Q 15.484375 15.921875 20.484375 11.0625 
Q 25.484375 6.203125 34.421875 6.203125 
Q 39.59375 6.203125 44.453125 7.46875 
Q 49.3125 8.734375 54.109375 11.28125 
L 54.109375 2.78125 
Q 49.265625 0.734375 44.1875 -0.34375 
Q 39.109375 -1.421875 33.890625 -1.421875 
Q 20.796875 -1.421875 13.15625 6.1875 
Q 5.515625 13.8125 5.515625 26.8125 
Q 5.515625 40.234375 12.765625 48.109375 
Q 20.015625 56 32.328125 56 
Q 43.359375 56 49.78125 48.890625 
Q 56.203125 41.796875 56.203125 29.59375 
z
M 47.21875 32.234375 
Q 47.125 39.59375 43.09375 43.984375 
Q 39.0625 48.390625 32.421875 48.390625 
Q 24.90625 48.390625 20.390625 44.140625 
Q 15.875 39.890625 15.1875 32.171875 
z
" id="DejaVuSans-101"/>
       <path d="M 34.28125 27.484375 
Q 23.390625 27.484375 19.1875 25 
Q 14.984375 22.515625 14.984375 16.5 
Q 14.984375 11.71875 18.140625 8.90625 
Q 21.296875 6.109375 26.703125 6.109375 
Q 34.1875 6.109375 38.703125 11.40625 
Q 43.21875 16.703125 43.21875 25.484375 
L 43.21875 27.484375 
z
M 52.203125 31.203125 
L 52.203125 0 
L 43.21875 0 
L 43.21875 8.296875 
Q 40.140625 3.328125 35.546875 0.953125 
Q 30.953125 -1.421875 24.3125 -1.421875 
Q 15.921875 -1.421875 10.953125 3.296875 
Q 6 8.015625 6 15.921875 
Q 6 25.140625 12.171875 29.828125 
Q 18.359375 34.515625 30.609375 34.515625 
L 43.21875 34.515625 
L 43.21875 35.40625 
Q 43.21875 41.609375 39.140625 45 
Q 35.0625 48.390625 27.6875 48.390625 
Q 23 48.390625 18.546875 47.265625 
Q 14.109375 46.140625 10.015625 43.890625 
L 10.015625 52.203125 
Q 14.9375 54.109375 19.578125 55.046875 
Q 24.21875 56 28.609375 56 
Q 40.484375 56 46.34375 49.84375 
Q 52.203125 43.703125 52.203125 31.203125 
z
" id="DejaVuSans-97"/>
       <path d="M 9.421875 75.984375 
L 18.40625 75.984375 
L 18.40625 0 
L 9.421875 0 
z
" id="DejaVuSans-108"/>
       <path d="M 18.3125 70.21875 
L 18.3125 54.6875 
L 36.8125 54.6875 
L 36.8125 47.703125 
L 18.3125 47.703125 
L 18.3125 18.015625 
Q 18.3125 11.328125 20.140625 9.421875 
Q 21.96875 7.515625 27.59375 7.515625 
L 36.8125 7.515625 
L 36.8125 0 
L 27.59375 0 
Q 17.1875 0 13.234375 3.875 
Q 9.28125 7.765625 9.28125 18.015625 
L 9.28125 47.703125 
L 2.6875 47.703125 
L 2.6875 54.6875 
L 9.28125 54.6875 
L 9.28125 70.21875 
z
" id="DejaVuSans-116"/>
       <path d="M 54.890625 33.015625 
L 54.890625 0 
L 45.90625 0 
L 45.90625 32.71875 
Q 45.90625 40.484375 42.875 44.328125 
Q 39.84375 48.1875 33.796875 48.1875 
Q 26.515625 48.1875 22.3125 43.546875 
Q 18.109375 38.921875 18.109375 30.90625 
L 18.109375 0 
L 9.078125 0 
L 9.078125 75.984375 
L 18.109375 75.984375 
L 18.109375 46.1875 
Q 21.34375 51.125 25.703125 53.5625 
Q 30.078125 56 35.796875 56 
Q 45.21875 56 50.046875 50.171875 
Q 54.890625 44.34375 54.890625 33.015625 
z
" id="DejaVuSans-104"/>
       <path d="M 32.171875 -5.078125 
Q 28.375 -14.84375 24.75 -17.8125 
Q 21.140625 -20.796875 15.09375 -20.796875 
L 7.90625 -20.796875 
L 7.90625 -13.28125 
L 13.1875 -13.28125 
Q 16.890625 -13.28125 18.9375 -11.515625 
Q 21 -9.765625 23.484375 -3.21875 
L 25.09375 0.875 
L 2.984375 54.6875 
L 12.5 54.6875 
L 29.59375 11.921875 
L 46.6875 54.6875 
L 56.203125 54.6875 
z
" id="DejaVuSans-121"/>
      </defs>
      <use xlink:href="#DejaVuSans-72"/>
      <use x="75.195312" xlink:href="#DejaVuSans-101"/>
      <use x="136.71875" xlink:href="#DejaVuSans-97"/>
      <use x="197.998047" xlink:href="#DejaVuSans-108"/>
      <use x="225.78125" xlink:href="#DejaVuSans-116"/>
      <use x="264.990234" xlink:href="#DejaVuSans-104"/>
      <use x="328.369141" xlink:href="#DejaVuSans-121"/>
     </g>
    </g>
    <g id="patch_4">
     <path d="M 106.55625 322.0988 
L 126.55625 322.0988 
L 126.55625 315.0988 
L 106.55625 315.0988 
z
" style="fill:#fc8d62;stroke:#fc8d62;stroke-linejoin:miter;"/>
    </g>
    <g id="text_101">
     <!-- Overweight -->
     <g transform="translate(134.55625 322.0988)scale(0.1 -0.1)">
      <defs>
       <path d="M 39.40625 66.21875 
Q 28.65625 66.21875 22.328125 58.203125 
Q 16.015625 50.203125 16.015625 36.375 
Q 16.015625 22.609375 22.328125 14.59375 
Q 28.65625 6.59375 39.40625 6.59375 
Q 50.140625 6.59375 56.421875 14.59375 
Q 62.703125 22.609375 62.703125 36.375 
Q 62.703125 50.203125 56.421875 58.203125 
Q 50.140625 66.21875 39.40625 66.21875 
z
M 39.40625 74.21875 
Q 54.734375 74.21875 63.90625 63.9375 
Q 73.09375 53.65625 73.09375 36.375 
Q 73.09375 19.140625 63.90625 8.859375 
Q 54.734375 -1.421875 39.40625 -1.421875 
Q 24.03125 -1.421875 14.8125 8.828125 
Q 5.609375 19.09375 5.609375 36.375 
Q 5.609375 53.65625 14.8125 63.9375 
Q 24.03125 74.21875 39.40625 74.21875 
z
" id="DejaVuSans-79"/>
       <path d="M 2.984375 54.6875 
L 12.5 54.6875 
L 29.59375 8.796875 
L 46.6875 54.6875 
L 56.203125 54.6875 
L 35.6875 0 
L 23.484375 0 
z
" id="DejaVuSans-118"/>
       <path d="M 41.109375 46.296875 
Q 39.59375 47.171875 37.8125 47.578125 
Q 36.03125 48 33.890625 48 
Q 26.265625 48 22.1875 43.046875 
Q 18.109375 38.09375 18.109375 28.8125 
L 18.109375 0 
L 9.078125 0 
L 9.078125 54.6875 
L 18.109375 54.6875 
L 18.109375 46.1875 
Q 20.953125 51.171875 25.484375 53.578125 
Q 30.03125 56 36.53125 56 
Q 37.453125 56 38.578125 55.875 
Q 39.703125 55.765625 41.0625 55.515625 
z
" id="DejaVuSans-114"/>
       <path d="M 4.203125 54.6875 
L 13.1875 54.6875 
L 24.421875 12.015625 
L 35.59375 54.6875 
L 46.1875 54.6875 
L 57.421875 12.015625 
L 68.609375 54.6875 
L 77.59375 54.6875 
L 63.28125 0 
L 52.6875 0 
L 40.921875 44.828125 
L 29.109375 0 
L 18.5 0 
z
" id="DejaVuSans-119"/>
       <path d="M 9.421875 54.6875 
L 18.40625 54.6875 
L 18.40625 0 
L 9.421875 0 
z
M 9.421875 75.984375 
L 18.40625 75.984375 
L 18.40625 64.59375 
L 9.421875 64.59375 
z
" id="DejaVuSans-105"/>
       <path d="M 45.40625 27.984375 
Q 45.40625 37.75 41.375 43.109375 
Q 37.359375 48.484375 30.078125 48.484375 
Q 22.859375 48.484375 18.828125 43.109375 
Q 14.796875 37.75 14.796875 27.984375 
Q 14.796875 18.265625 18.828125 12.890625 
Q 22.859375 7.515625 30.078125 7.515625 
Q 37.359375 7.515625 41.375 12.890625 
Q 45.40625 18.265625 45.40625 27.984375 
z
M 54.390625 6.78125 
Q 54.390625 -7.171875 48.1875 -13.984375 
Q 42 -20.796875 29.203125 -20.796875 
Q 24.46875 -20.796875 20.265625 -20.09375 
Q 16.0625 -19.390625 12.109375 -17.921875 
L 12.109375 -9.1875 
Q 16.0625 -11.328125 19.921875 -12.34375 
Q 23.78125 -13.375 27.78125 -13.375 
Q 36.625 -13.375 41.015625 -8.765625 
Q 45.40625 -4.15625 45.40625 5.171875 
L 45.40625 9.625 
Q 42.625 4.78125 38.28125 2.390625 
Q 33.9375 0 27.875 0 
Q 17.828125 0 11.671875 7.65625 
Q 5.515625 15.328125 5.515625 27.984375 
Q 5.515625 40.671875 11.671875 48.328125 
Q 17.828125 56 27.875 56 
Q 33.9375 56 38.28125 53.609375 
Q 42.625 51.21875 45.40625 46.390625 
L 45.40625 54.6875 
L 54.390625 54.6875 
z
" id="DejaVuSans-103"/>
      </defs>
      <use xlink:href="#DejaVuSans-79"/>
      <use x="78.710938" xlink:href="#DejaVuSans-118"/>
      <use x="137.890625" xlink:href="#DejaVuSans-101"/>
      <use x="199.414062" xlink:href="#DejaVuSans-114"/>
      <use x="240.527344" xlink:href="#DejaVuSans-119"/>
      <use x="322.314453" xlink:href="#DejaVuSans-101"/>
      <use x="383.837891" xlink:href="#DejaVuSans-105"/>
      <use x="411.621094" xlink:href="#DejaVuSans-103"/>
      <use x="475.097656" xlink:href="#DejaVuSans-104"/>
      <use x="538.476562" xlink:href="#DejaVuSans-116"/>
     </g>
    </g>
    <g id="patch_5">
     <path d="M 212.326563 322.0988 
L 232.326563 322.0988 
L 232.326563 315.0988 
L 212.326563 315.0988 
z
" style="fill:#8da0cb;stroke:#8da0cb;stroke-linejoin:miter;"/>
    </g>
    <g id="text_102">
     <!-- Obese -->
     <g transform="translate(240.326563 322.0988)scale(0.1 -0.1)">
      <defs>
       <path d="M 48.6875 27.296875 
Q 48.6875 37.203125 44.609375 42.84375 
Q 40.53125 48.484375 33.40625 48.484375 
Q 26.265625 48.484375 22.1875 42.84375 
Q 18.109375 37.203125 18.109375 27.296875 
Q 18.109375 17.390625 22.1875 11.75 
Q 26.265625 6.109375 33.40625 6.109375 
Q 40.53125 6.109375 44.609375 11.75 
Q 48.6875 17.390625 48.6875 27.296875 
z
M 18.109375 46.390625 
Q 20.953125 51.265625 25.265625 53.625 
Q 29.59375 56 35.59375 56 
Q 45.5625 56 51.78125 48.09375 
Q 58.015625 40.1875 58.015625 27.296875 
Q 58.015625 14.40625 51.78125 6.484375 
Q 45.5625 -1.421875 35.59375 -1.421875 
Q 29.59375 -1.421875 25.265625 0.953125 
Q 20.953125 3.328125 18.109375 8.203125 
L 18.109375 0 
L 9.078125 0 
L 9.078125 75.984375 
L 18.109375 75.984375 
z
" id="DejaVuSans-98"/>
       <path d="M 44.28125 53.078125 
L 44.28125 44.578125 
Q 40.484375 46.53125 36.375 47.5 
Q 32.28125 48.484375 27.875 48.484375 
Q 21.1875 48.484375 17.84375 46.4375 
Q 14.5 44.390625 14.5 40.28125 
Q 14.5 37.15625 16.890625 35.375 
Q 19.28125 33.59375 26.515625 31.984375 
L 29.59375 31.296875 
Q 39.15625 29.25 43.1875 25.515625 
Q 47.21875 21.78125 47.21875 15.09375 
Q 47.21875 7.46875 41.1875 3.015625 
Q 35.15625 -1.421875 24.609375 -1.421875 
Q 20.21875 -1.421875 15.453125 -0.5625 
Q 10.6875 0.296875 5.421875 2 
L 5.421875 11.28125 
Q 10.40625 8.6875 15.234375 7.390625 
Q 20.0625 6.109375 24.8125 6.109375 
Q 31.15625 6.109375 34.5625 8.28125 
Q 37.984375 10.453125 37.984375 14.40625 
Q 37.984375 18.0625 35.515625 20.015625 
Q 33.0625 21.96875 24.703125 23.78125 
L 21.578125 24.515625 
Q 13.234375 26.265625 9.515625 29.90625 
Q 5.8125 33.546875 5.8125 39.890625 
Q 5.8125 47.609375 11.28125 51.796875 
Q 16.75 56 26.8125 56 
Q 31.78125 56 36.171875 55.265625 
Q 40.578125 54.546875 44.28125 53.078125 
z
" id="DejaVuSans-115"/>
      </defs>
      <use xlink:href="#DejaVuSans-79"/>
      <use x="78.710938" xlink:href="#DejaVuSans-98"/>
      <use x="142.1875" xlink:href="#DejaVuSans-101"/>
      <use x="203.710938" xlink:href="#DejaVuSans-115"/>
      <use x="255.810547" xlink:href="#DejaVuSans-101"/>
     </g>
    </g>
   </g>
  </g>
 </g>
</svg>
